<?xml version="1.0" encoding="utf-8" standalone="no"?>
<!DOCTYPE svg PUBLIC "-//W3C//DTD SVG 1.1//EN"
  "http://www.w3.org/Graphics/SVG/1.1/DTD/svg11.dtd">
<svg xmlns:xlink="http://www.w3.org/1999/xlink" width="720pt" height="360pt" viewBox="0 0 720 360" xmlns="http://www.w3.org/2000/svg" version="1.1">
 <title>Features disponibles al decidir, modelo, predicción y etiqueta de referencia para aprender.</title>
 <metadata>
  <rdf:RDF xmlns:dc="http://purl.org/dc/elements/1.1/" xmlns:cc="http://creativecommons.org/ns#" xmlns:rdf="http://www.w3.org/1999/02/22-rdf-syntax-ns#">
   <cc:Work>
    <dc:type rdf:resource="http://purl.org/dc/dcmitype/StillImage"/>
    <dc:title>Features disponibles al decidir, modelo, predicción y etiqueta de referencia para aprender.</dc:title>
    <dc:date>2026-09-30T19:22:27.249893</dc:date>
    <dc:description>Features disponibles al decidir, modelo, predicción y etiqueta de referencia para aprender.</dc:description>
    <dc:format>image/svg+xml</dc:format>
    <dc:creator>
     <cc:Agent>
      <dc:title>Matplotlib v3.10.3, https://matplotlib.org/</dc:title>
     </cc:Agent>
    </dc:creator>
   </cc:Work>
  </rdf:RDF>
 </metadata>
 <defs>
  <style type="text/css">*{stroke-linejoin: round; stroke-linecap: butt}</style>
 </defs>
 <g id="figure_1">
  <g id="patch_1">
   <path d="M 0 360 
L 720 360 
L 720 0 
L 0 0 
z
" style="fill: #fbfaf7"/>
  </g>
  <g id="axes_1">
   <g id="patch_2">
    <path d="M 47.412 207.1584 
L 221.148 207.1584 
Q 230.724 207.1584 230.724 197.8848 
L 230.724 102.4992 
Q 230.724 93.2256 221.148 93.2256 
L 47.412 93.2256 
Q 37.836 93.2256 37.836 102.4992 
L 37.836 197.8848 
Q 37.836 207.1584 47.412 207.1584 
z
" clip-path="url(#paad4a62c67)" style="fill: #e5eff7; stroke: #306e9b; stroke-width: 1.1; stroke-linejoin: miter"/>
   </g>
   <g id="patch_3">
    <path d="M 300.492 207.1584 
L 440.028 207.1584 
Q 449.604 207.1584 449.604 197.8848 
L 449.604 102.4992 
Q 449.604 93.2256 440.028 93.2256 
L 300.492 93.2256 
Q 290.916 93.2256 290.916 102.4992 
L 290.916 197.8848 
Q 290.916 207.1584 300.492 207.1584 
z
" clip-path="url(#paad4a62c67)" style="fill: #e2f1e6; stroke: #287653; stroke-width: 1.1; stroke-linejoin: miter"/>
   </g>
   <g id="patch_4">
    <path d="M 526.212 207.1584 
L 672.588 207.1584 
Q 682.164 207.1584 682.164 197.8848 
L 682.164 102.4992 
Q 682.164 93.2256 672.588 93.2256 
L 526.212 93.2256 
Q 516.636 93.2256 516.636 102.4992 
L 516.636 197.8848 
Q 516.636 207.1584 526.212 207.1584 
z
" clip-path="url(#paad4a62c67)" style="fill: #efeaf8; stroke: #7160a6; stroke-width: 1.1; stroke-linejoin: miter"/>
   </g>
   <g id="patch_5">
    <path d="M 232.042654 153.504 
Q 260.819859 153.504 287.584603 153.504 
" clip-path="url(#paad4a62c67)" style="fill: none; stroke: #657066; stroke-width: 1.8; stroke-linecap: round"/>
    <path d="M 280.784603 150.104 
L 287.584603 153.504 
L 280.784603 156.904 
z
" clip-path="url(#paad4a62c67)" style="fill: #657066; stroke: #657066; stroke-width: 1.8; stroke-linecap: round"/>
   </g>
   <g id="patch_6">
    <path d="M 450.919731 153.504 
Q 483.120863 153.504 513.309533 153.504 
" clip-path="url(#paad4a62c67)" style="fill: none; stroke: #657066; stroke-width: 1.8; stroke-linecap: round"/>
    <path d="M 506.509533 150.104 
L 513.309533 153.504 
L 506.509533 156.904 
z
" clip-path="url(#paad4a62c67)" style="fill: #657066; stroke: #657066; stroke-width: 1.8; stroke-linecap: round"/>
   </g>
   <g id="patch_7">
    <path d="M 259.452 313.1424 
L 487.908 313.1424 
Q 497.484 313.1424 497.484 303.8688 
L 497.484 254.8512 
Q 497.484 245.5776 487.908 245.5776 
L 259.452 245.5776 
Q 249.876 245.5776 249.876 254.8512 
L 249.876 303.8688 
Q 249.876 313.1424 259.452 313.1424 
z
" clip-path="url(#paad4a62c67)" style="fill: #fff0d5; stroke: #b27628; stroke-width: 1.1; stroke-linejoin: miter"/>
   </g>
   <g id="patch_8">
    <path d="M 373.68 244.236305 
Q 373.68 226.368168 373.68 210.512493 
" clip-path="url(#paad4a62c67)" style="fill: none; stroke: #b27628; stroke-width: 1.8; stroke-linecap: round"/>
    <path d="M 370.28 217.312493 
L 373.68 210.512493 
L 377.08 217.312493 
z
" clip-path="url(#paad4a62c67)" style="fill: #b27628; stroke: #b27628; stroke-width: 1.8; stroke-linecap: round"/>
   </g>
   <g id="text_1">
    <text style="font-weight: 700; font-size: 19px; font-family: 'DejaVu Sans'; text-anchor: start; fill: #26362d" x="31.68" y="42.826813" transform="rotate(-0 31.68 42.826813)">La entrada debe estar disponible antes de decidir</text>
   </g>
   <g id="text_2">
    <text style="font-weight: 700; font-size: 15px; font-family: 'DejaVu Sans'; text-anchor: middle; fill: #306e9b" x="134.28" y="137.439863" transform="rotate(-0 134.28 137.439863)">Features</text>
   </g>
   <g id="text_3">
    <text style="font-size: 12.5px; font-family: 'DejaVu Sans'; text-anchor: middle; fill: #306e9b" x="134.28" y="178.414979" transform="rotate(-0 134.28 178.414979)">Texto · idioma · longitud</text>
   </g>
   <g id="text_4">
    <text style="font-weight: 700; font-size: 15px; font-family: 'DejaVu Sans'; text-anchor: middle; fill: #287653" x="370.26" y="137.439863" transform="rotate(-0 370.26 137.439863)">Modelo</text>
   </g>
   <g id="text_5">
    <text style="font-size: 12.5px; font-family: 'DejaVu Sans'; text-anchor: middle; fill: #287653" x="370.26" y="178.664979" transform="rotate(-0 370.26 178.664979)">Aprender una relación</text>
   </g>
   <g id="text_6">
    <text style="font-weight: 700; font-size: 15px; font-family: 'DejaVu Sans'; text-anchor: middle; fill: #7160a6" x="599.4" y="137.439863" transform="rotate(-0 599.4 137.439863)">Predicción</text>
   </g>
   <g id="text_7">
    <text style="font-size: 12.5px; font-family: 'DejaVu Sans'; text-anchor: middle; fill: #7160a6" x="599.4" y="178.414979" transform="rotate(-0 599.4 178.414979)">Derivar / no derivar</text>
   </g>
   <g id="text_8">
    <text style="font-weight: 700; font-size: 15px; font-family: 'DejaVu Sans'; text-anchor: middle; fill: #b27628" x="373.68" y="273.563063" transform="rotate(-0 373.68 273.563063)">Etiqueta de referencia</text>
   </g>
   <g id="text_9">
    <text style="font-size: 12.5px; font-family: 'DejaVu Sans'; text-anchor: middle; fill: #b27628" x="373.68" y="297.382019" transform="rotate(-0 373.68 297.382019)">Necesitaba ayuda humana</text>
   </g>
   <g id="text_10">
    <text style="font-size: 12px; font-family: 'DejaVu Sans'; fill: #657066" transform="translate(534.743438 274.584844)">Comparar contra</text>
    <text style="font-size: 12px; font-family: 'DejaVu Sans'; fill: #657066" transform="translate(553.425938 290.757656)">la etiqueta</text>
   </g>
  </g>
 </g>
 <defs>
  <clipPath id="paad4a62c67">
   <rect x="18" y="14.4" width="684" height="331.2"/>
  </clipPath>
 </defs>
</svg>
