<svg xmlns="http://www.w3.org/2000/svg" width="900" height="224" viewBox="0 0 900 224" role="img"><title>Skills compartidas · una forma de trabajar que el equipo reutiliza</title><g font-family="system-ui, Segoe UI, sans-serif"><rect x="0" y="0" width="900" height="224" rx="12" fill="#FBFAF7" stroke="none"/><text x="28" y="33" fill="#5F5E5A" font-size="17" text-anchor="start" font-weight="600">Skills compartidas · una forma de trabajar que el equipo reutiliza</text><rect x="28.0" y="55" width="260.0" height="149" rx="12" fill="#FAEEDA" stroke="none"/><g transform="translate(134.0,69) scale(0.75)" stroke="#854F0B" stroke-width="3" stroke-linecap="round" stroke-linejoin="round" fill="none"><path d="M7 14L11 18L19 9M28 14H57M7 33L11 37L19 28M28 33H57M28 52H57"/><circle cx="13" cy="52" r="4"/></g><text x="158.0" y="148" fill="#854F0B" font-size="19" text-anchor="middle" font-weight="600">Procedimiento</text><text x="158.0" y="179" fill="#854F0B" font-size="16" text-anchor="middle" font-weight="400">cuándo y cómo</text><path d="M295.0 124H313.0m-6-5 6 5-6 5" fill="none" stroke="#888780" stroke-width="2"/><rect x="320.0" y="55" width="260.0" height="149" rx="12" fill="#FAEEDA" stroke="none"/><g transform="translate(426.0,69) scale(0.75)" stroke="#854F0B" stroke-width="3" stroke-linecap="round" stroke-linejoin="round" fill="none"><rect x="7" y="5" width="43" height="42" rx="5"/><path d="M19 56H57V17M17 18H40M17 28H40M17 38H33"/></g><text x="450.0" y="148" fill="#854F0B" font-size="19" text-anchor="middle" font-weight="600">Skill</text><text x="450.0" y="179" fill="#854F0B" font-size="16" text-anchor="middle" font-weight="400">instrucciones + recursos</text><path d="M587.0 124H605.0m-6-5 6 5-6 5" fill="none" stroke="#888780" stroke-width="2"/><rect x="612.0" y="55" width="260.0" height="149" rx="12" fill="#FAEEDA" stroke="none"/><g transform="translate(718.0,69) scale(0.75)" stroke="#854F0B" stroke-width="3" stroke-linecap="round" stroke-linejoin="round" fill="none"><circle cx="32" cy="13" r="9"/><circle cx="12" cy="34" r="8"/><circle cx="52" cy="34" r="8"/><path d="M2 60V54Q12 41 23 54V60M41 60V54Q52 41 62 54V60M20 30Q32 20 44 30"/></g><text x="742.0" y="148" fill="#854F0B" font-size="19" text-anchor="middle" font-weight="600">Equipo</text><text x="742.0" y="179" fill="#854F0B" font-size="16" text-anchor="middle" font-weight="400">compartir y versionar</text></g></svg>