<svg xmlns="http://www.w3.org/2000/svg" width="900" height="224" viewBox="0 0 900 224" role="img"><title>Elegir un modelo · según la tarea</title><g font-family="system-ui, Segoe UI, sans-serif"><rect x="0" y="0" width="900" height="224" rx="12" fill="#FBFAF7" stroke="none"/><text x="28" y="33" fill="#5F5E5A" font-size="17" text-anchor="start" font-weight="600">Elegir un modelo · según la tarea</text><rect x="28.0" y="55" width="260.0" height="149" rx="12" fill="#E6F1FB" stroke="none"/><g transform="translate(134.0,69) scale(0.75)" stroke="#185FA5" stroke-width="3" stroke-linecap="round" stroke-linejoin="round" fill="none"><circle cx="32" cy="32" r="27"/><circle cx="32" cy="32" r="16"/><circle cx="32" cy="32" r="4"/></g><text x="158.0" y="148" fill="#185FA5" font-size="19" text-anchor="middle" font-weight="600">Tarea</text><text x="158.0" y="179" fill="#185FA5" font-size="16" text-anchor="middle" font-weight="400">qué necesitás resolver</text><path d="M295.0 124H313.0m-6-5 6 5-6 5" fill="none" stroke="#888780" stroke-width="2"/><rect x="320.0" y="55" width="260.0" height="149" rx="12" fill="#E6F1FB" stroke="none"/><g transform="translate(426.0,69) scale(0.75)" stroke="#185FA5" stroke-width="3" stroke-linecap="round" stroke-linejoin="round" fill="none"><rect x="10" y="10" width="44" height="44" rx="7"/><path d="M23 1V10M41 1V10M23 54V63M41 54V63M1 23H10M1 41H10M54 23H63M54 41H63"/><rect x="23" y="23" width="18" height="18" rx="2"/></g><text x="450.0" y="148" fill="#185FA5" font-size="19" text-anchor="middle" font-weight="600">Candidatos</text><text x="450.0" y="179" fill="#185FA5" font-size="16" text-anchor="middle" font-weight="400">calidad, tiempo y costo</text><path d="M587.0 124H605.0m-6-5 6 5-6 5" fill="none" stroke="#888780" stroke-width="2"/><rect x="612.0" y="55" width="260.0" height="149" rx="12" fill="#E6F1FB" stroke="none"/><g transform="translate(718.0,69) scale(0.75)" stroke="#185FA5" stroke-width="3" stroke-linecap="round" stroke-linejoin="round" fill="none"><circle cx="32" cy="32" r="27"/><path d="M18 32L27 41L47 21"/></g><text x="742.0" y="148" fill="#185FA5" font-size="19" text-anchor="middle" font-weight="600">Evaluación</text><text x="742.0" y="179" fill="#185FA5" font-size="16" text-anchor="middle" font-weight="400">comparar con tus casos</text></g></svg>