<svg xmlns="http://www.w3.org/2000/svg" width="900" height="224" viewBox="0 0 900 224" role="img"><title>Guardrails · controles durante el recorrido</title><g font-family="system-ui, Segoe UI, sans-serif"><rect x="0" y="0" width="900" height="224" rx="12" fill="#FBFAF7" stroke="none"/><text x="28" y="33" fill="#5F5E5A" font-size="17" text-anchor="start" font-weight="600">Guardrails · controles durante el recorrido</text><rect x="28.0" y="55" width="260.0" height="149" rx="12" fill="#E1F5EE" stroke="none"/><g transform="translate(134.0,69) scale(0.75)" stroke="#0F6E56" stroke-width="3" stroke-linecap="round" stroke-linejoin="round" fill="none"><path d="M32 3L56 13V32Q55 48 32 61Q9 48 8 32V13ZM21 31L29 39L44 22"/></g><text x="158.0" y="148" fill="#0F6E56" font-size="19" text-anchor="middle" font-weight="600">Entrada</text><text x="158.0" y="179" fill="#0F6E56" font-size="16" text-anchor="middle" font-weight="400">datos e instrucciones</text><path d="M295.0 124H313.0m-6-5 6 5-6 5" fill="none" stroke="#888780" stroke-width="2"/><rect x="320.0" y="55" width="260.0" height="149" rx="12" fill="#E1F5EE" stroke="none"/><g transform="translate(426.0,69) scale(0.75)" stroke="#0F6E56" stroke-width="3" stroke-linecap="round" stroke-linejoin="round" fill="none"><path d="M32 3L56 13V32Q55 48 32 61Q9 48 8 32V13ZM21 31L29 39L44 22"/></g><text x="450.0" y="148" fill="#0F6E56" font-size="19" text-anchor="middle" font-weight="600">Acción</text><text x="450.0" y="179" fill="#0F6E56" font-size="16" text-anchor="middle" font-weight="400">argumentos y permisos</text><path d="M587.0 124H605.0m-6-5 6 5-6 5" fill="none" stroke="#888780" stroke-width="2"/><rect x="612.0" y="55" width="260.0" height="149" rx="12" fill="#E1F5EE" stroke="none"/><g transform="translate(718.0,69) scale(0.75)" stroke="#0F6E56" stroke-width="3" stroke-linecap="round" stroke-linejoin="round" fill="none"><path d="M32 3L56 13V32Q55 48 32 61Q9 48 8 32V13ZM21 31L29 39L44 22"/></g><text x="742.0" y="148" fill="#0F6E56" font-size="19" text-anchor="middle" font-weight="600">Salida</text><text x="742.0" y="179" fill="#0F6E56" font-size="16" text-anchor="middle" font-weight="400">formato y contenido</text></g></svg>