<svg xmlns="http://www.w3.org/2000/svg" viewBox="0 0 900 2170" width="900" height="2170" font-family="ui-sans-serif, system-ui, -apple-system, 'Segoe UI', Roboto, Helvetica, Arial, sans-serif"><rect x="0" y="0" width="900" height="2170" rx="12" fill="#FBFAF7" stroke="none"/><rect x="20" y="20" width="420" height="192" rx="12" fill="#E6F1FB" stroke="#185FA5"/><g transform="translate(40,45) scale(1)" stroke="#185FA5" stroke-width="3" stroke-linecap="round" stroke-linejoin="round" fill="none"><rect x="10" y="10" width="44" height="44" rx="7"/><path d="M23 1V10M41 1V10M23 54V63M41 54V63M1 23H10M1 41H10M54 23H63M54 41H63"/><rect x="23" y="23" width="18" height="18" rx="2"/></g><text x="124" y="54" fill="#185FA5" font-size="21" text-anchor="start" font-weight="600">Fundamentos</text><text x="124" y="88" fill="#185FA5" font-size="15" text-anchor="start" font-weight="400">LLMs y elección de modelo</text><text x="124" y="117" fill="#185FA5" font-size="15" text-anchor="start" font-weight="400">Prompts y salidas estructuradas</text><text x="124" y="146" fill="#185FA5" font-size="15" text-anchor="start" font-weight="400">Contexto, memoria y estado</text><text x="124" y="175" fill="#185FA5" font-size="15" text-anchor="start" font-weight="400">Tools y function calling</text><rect x="460" y="20" width="420" height="192" rx="12" fill="#E1F5EE" stroke="#0F6E56"/><g transform="translate(480,45) scale(1)" stroke="#0F6E56" stroke-width="3" stroke-linecap="round" stroke-linejoin="round" fill="none"><path d="M32 3L56 13V32Q55 48 32 61Q9 48 8 32V13ZM21 31L29 39L44 22"/></g><text x="564" y="54" fill="#0F6E56" font-size="21" text-anchor="start" font-weight="600">Seguridad</text><text x="564" y="88" fill="#0F6E56" font-size="15" text-anchor="start" font-weight="400">Guardrails</text><text x="564" y="117" fill="#0F6E56" font-size="15" text-anchor="start" font-weight="400">Control humano y permisos</text><text x="564" y="146" fill="#0F6E56" font-size="15" text-anchor="start" font-weight="400">ACLs · lectura autorizada</text><g transform="translate(0,240)">
<defs><marker id="arr" viewBox="0 0 10 10" refX="8" refY="5" markerWidth="7" markerHeight="7" orient="auto"><path d="M2 1L8 5L2 9" fill="none" stroke="#5F5E5A" stroke-width="1.5" stroke-linecap="round" stroke-linejoin="round"/></marker></defs>
<rect x="0" y="0" width="900" height="708" fill="#FBFAF7"/>
<rect x="20" y="20" width="860" height="364" rx="14" fill="none" stroke="#888780" stroke-width="1" stroke-dasharray="5 4"/>
<text x="36" y="44" font-size="14" font-weight="600" fill="#444441">RAG · de los datos a la respuesta</text>
<g><rect x="40" y="64" width="200" height="56" rx="8" fill="#EEEDFE" stroke="#534AB7" stroke-width="1"/>
<text x="140.0" y="84.16" font-size="14" font-weight="600" fill="#3C3489" text-anchor="middle" dominant-baseline="central">Vector DB</text>
<text x="140.0" y="103.75999999999999" font-size="11" fill="#534AB7" text-anchor="middle" dominant-baseline="central">pipeline de ingesta</text></g>
<g><rect x="40" y="144" width="200" height="56" rx="8" fill="#EEEDFE" stroke="#534AB7" stroke-width="1"/>
<text x="140.0" y="164.16" font-size="14" font-weight="600" fill="#3C3489" text-anchor="middle" dominant-baseline="central">ANN / HNSW</text>
<text x="140.0" y="183.76" font-size="11" fill="#534AB7" text-anchor="middle" dominant-baseline="central">índice para muchos docs</text></g>
<g><rect x="40" y="228" width="200" height="56" rx="8" fill="#EEEDFE" stroke="#534AB7" stroke-width="1"/>
<text x="140.0" y="248.16" font-size="14" font-weight="600" fill="#3C3489" text-anchor="middle" dominant-baseline="central">RAG básico</text>
<text x="140.0" y="267.76" font-size="11" fill="#534AB7" text-anchor="middle" dominant-baseline="central">retrieve · augment · generate</text></g>
<g><rect x="270" y="228" width="200" height="56" rx="8" fill="#EEEDFE" stroke="#534AB7" stroke-width="1"/>
<text x="370.0" y="248.16" font-size="14" font-weight="600" fill="#3C3489" text-anchor="middle" dominant-baseline="central">RAG agéntico</text>
<text x="370.0" y="267.76" font-size="11" fill="#534AB7" text-anchor="middle" dominant-baseline="central">routing · multi-hop · self-check</text></g>
<rect x="270" y="52" width="596" height="156" rx="10" fill="none" stroke="#B4B2A9" stroke-width="1" stroke-dasharray="3 3"/>
<text x="284" y="72" font-size="12" font-weight="600" fill="#5F5E5A">Pipeline de ingesta · las 7 preguntas</text>
<line x1="268" y1="92" x2="246" y2="92" stroke="#5F5E5A" stroke-width="1.2" marker-end="url(#arr)"/>
<g><rect x="282" y="84" width="134" height="48" rx="8" fill="#FAEEDA" stroke="#854F0B" stroke-width="1"/>
<text x="349.0" y="101.28" font-size="12" font-weight="600" fill="#633806" text-anchor="middle" dominant-baseline="central">Connector</text>
<text x="349.0" y="118.08" font-size="10.5" fill="#854F0B" text-anchor="middle" dominant-baseline="central">cómo obtengo los datos</text></g>
<g><rect x="428" y="84" width="134" height="48" rx="8" fill="#FAEEDA" stroke="#854F0B" stroke-width="1"/>
<text x="495.0" y="101.28" font-size="12" font-weight="600" fill="#633806" text-anchor="middle" dominant-baseline="central">Normalization</text>
<text x="495.0" y="118.08" font-size="10.5" fill="#854F0B" text-anchor="middle" dominant-baseline="central">misma forma para todo</text></g>
<g><rect x="574" y="84" width="134" height="48" rx="8" fill="#FAEEDA" stroke="#854F0B" stroke-width="1"/>
<text x="641.0" y="101.28" font-size="12" font-weight="600" fill="#633806" text-anchor="middle" dominant-baseline="central">Document IDs</text>
<text x="641.0" y="118.08" font-size="10.5" fill="#854F0B" text-anchor="middle" dominant-baseline="central">mismo doc en el tiempo</text></g>
<g><rect x="720" y="84" width="134" height="48" rx="8" fill="#FAEEDA" stroke="#854F0B" stroke-width="1"/>
<text x="787.0" y="101.28" font-size="12" font-weight="600" fill="#633806" text-anchor="middle" dominant-baseline="central">Deduplication</text>
<text x="787.0" y="118.08" font-size="10.5" fill="#854F0B" text-anchor="middle" dominant-baseline="central">nada repetido</text></g>
<g><rect x="282" y="148" width="134" height="48" rx="8" fill="#FAEEDA" stroke="#854F0B" stroke-width="1"/>
<text x="349.0" y="165.28" font-size="12" font-weight="600" fill="#633806" text-anchor="middle" dominant-baseline="central">Incremental sync</text>
<text x="349.0" y="182.07999999999998" font-size="10.5" fill="#854F0B" text-anchor="middle" dominant-baseline="central">solo lo que cambió</text></g>
<g><rect x="428" y="148" width="134" height="48" rx="8" fill="#FAEEDA" stroke="#854F0B" stroke-width="1"/>
<text x="495.0" y="165.28" font-size="12" font-weight="600" fill="#633806" text-anchor="middle" dominant-baseline="central">Caching</text>
<text x="495.0" y="182.07999999999998" font-size="10.5" fill="#854F0B" text-anchor="middle" dominant-baseline="central">menos costo y latencia</text></g>
<g><rect x="574" y="148" width="134" height="48" rx="8" fill="#FAEEDA" stroke="#854F0B" stroke-width="1"/>
<text x="641.0" y="165.28" font-size="12" font-weight="600" fill="#633806" text-anchor="middle" dominant-baseline="central">ACLs</text>
<text x="641.0" y="182.07999999999998" font-size="10.5" fill="#854F0B" text-anchor="middle" dominant-baseline="central">ve solo lo permitido</text></g>
<line x1="140" y1="202" x2="140" y2="224" stroke="#5F5E5A" stroke-width="1.2" marker-end="url(#arr)"/>
<line x1="242" y1="256" x2="266" y2="256" stroke="#5F5E5A" stroke-width="1.2" marker-end="url(#arr)"/>
<g><rect x="40" y="308" width="200" height="56" rx="8" fill="#EEEDFE" stroke="#534AB7"/><text x="140" y="330" font-size="14" font-weight="600" fill="#3C3489" text-anchor="middle">Chunking</text><text x="140" y="351" font-size="11" fill="#534AB7" text-anchor="middle">ideas · tokens · overlap</text></g>
<g><rect x="270" y="308" width="200" height="56" rx="8" fill="#EEEDFE" stroke="#534AB7"/><text x="370" y="330" font-size="14" font-weight="600" fill="#3C3489" text-anchor="middle">Modelos de embedding</text><text x="370" y="351" font-size="11" fill="#534AB7" text-anchor="middle">modelo · dimensiones</text></g>
<g><rect x="500" y="308" width="200" height="56" rx="8" fill="#EEEDFE" stroke="#534AB7"/><text x="600" y="330" font-size="14" font-weight="600" fill="#3C3489" text-anchor="middle">RAG multimedia</text><text x="600" y="351" font-size="11" fill="#534AB7" text-anchor="middle">imágenes · audio · video</text></g>
<g transform="translate(0,80)">
<rect x="20" y="340" width="420" height="264" rx="14" fill="none" stroke="#888780" stroke-width="1" stroke-dasharray="5 4"/>
<text x="36" y="364" font-size="14" font-weight="600" fill="#444441">Multiagentes</text>
<g><rect x="40" y="384" width="180" height="56" rx="8" fill="#FAECE7" stroke="#993C1D" stroke-width="1"/>
<text x="130.0" y="404.16" font-size="14" font-weight="600" fill="#712B13" text-anchor="middle" dominant-baseline="central">Orquestador / workers</text>
<text x="130.0" y="423.76" font-size="11" fill="#993C1D" text-anchor="middle" dominant-baseline="central">planifica y delega</text></g>
<g><rect x="240" y="384" width="180" height="56" rx="8" fill="#FAECE7" stroke="#993C1D" stroke-width="1"/>
<text x="330.0" y="404.16" font-size="14" font-weight="600" fill="#712B13" text-anchor="middle" dominant-baseline="central">Router / handoff</text>
<text x="330.0" y="423.76" font-size="11" fill="#993C1D" text-anchor="middle" dominant-baseline="central">deriva por intención</text></g>

<rect x="460" y="340" width="420" height="324" rx="14" fill="none" stroke="#888780" stroke-width="1" stroke-dasharray="5 4"/>
<text x="476" y="364" font-size="14" font-weight="600" fill="#444441">Evals · atraviesa todo</text>
<g><rect x="480" y="384" width="190" height="56" rx="8" fill="#F1EFE8" stroke="#5F5E5A" stroke-width="1"/>
<text x="575.0" y="404.16" font-size="14" font-weight="600" fill="#444441" text-anchor="middle" dominant-baseline="central">Evals</text>
<text x="575.0" y="423.76" font-size="11" fill="#5F5E5A" text-anchor="middle" dominant-baseline="central">dataset → correr → medir</text></g>
<g><rect x="680" y="384" width="190" height="56" rx="8" fill="#F1EFE8" stroke="#5F5E5A" stroke-width="1"/>
<text x="775.0" y="404.16" font-size="14" font-weight="600" fill="#444441" text-anchor="middle" dominant-baseline="central">Golden dataset</text>
<text x="775.0" y="423.76" font-size="11" fill="#5F5E5A" text-anchor="middle" dominant-baseline="central">la vara de todo</text></g>
<g><rect x="480" y="452" width="190" height="56" rx="8" fill="#F1EFE8" stroke="#5F5E5A" stroke-width="1"/>
<text x="575.0" y="472.16" font-size="14" font-weight="600" fill="#444441" text-anchor="middle" dominant-baseline="central">Tool evals</text>
<text x="575.0" y="491.76" font-size="11" fill="#5F5E5A" text-anchor="middle" dominant-baseline="central">tool y args correctos</text></g>
<g><rect x="680" y="452" width="190" height="56" rx="8" fill="#F1EFE8" stroke="#5F5E5A" stroke-width="1"/>
<text x="775.0" y="472.16" font-size="14" font-weight="600" fill="#444441" text-anchor="middle" dominant-baseline="central">Multi-agent evals</text>
<text x="775.0" y="491.76" font-size="11" fill="#5F5E5A" text-anchor="middle" dominant-baseline="central">la trayectoria, no el final</text></g>
</g>
<g><rect x="720" y="308" width="140" height="56" rx="8" fill="#EEEDFE" stroke="#534AB7"/><text x="790" y="330" font-size="14" font-weight="600" fill="#3C3489" text-anchor="middle">ANN / IVF</text><text x="790" y="351" font-size="11" fill="#534AB7" text-anchor="middle">buscar por listas</text></g>
<g><rect x="480" y="600" width="390" height="56" rx="8" fill="#F1EFE8" stroke="#5F5E5A"/><text x="675" y="623" text-anchor="middle" font-size="14" font-weight="600" fill="#444441">RAG evals</text><text x="675" y="644" text-anchor="middle" font-size="11" fill="#5F5E5A">Recall@k · groundedness · corrección</text></g>
<rect x="40" y="532" width="380" height="56" rx="12" fill="#FAECE7" stroke="#993C1D"/><text x="230" y="555" fill="#712B13" font-size="14" text-anchor="middle" font-weight="600">Agente vs workflow vs multiagente</text><text x="230" y="576" fill="#993C1D" font-size="11" text-anchor="middle" font-weight="400">autonomía y reparto</text><rect x="480" y="668" width="390" height="56" rx="12" fill="#F1EFE8" stroke="#5F5E5A"/><text x="675" y="691" fill="#444441" font-size="14" text-anchor="middle" font-weight="600">Operación en producción</text><text x="675" y="712" fill="#5F5E5A" font-size="11" text-anchor="middle" font-weight="400">trazas · costo · recuperación</text></g><rect x="20" y="1040" width="860" height="232" rx="12" fill="#FAEEDA" stroke="#854F0B"/><g transform="translate(40,1064) scale(0.8)" stroke="#854F0B" stroke-width="3" stroke-linecap="round" stroke-linejoin="round" fill="none"><path d="M42 5a17 17 0 0 0-18 24L6 47a8 8 0 0 0 11 11l18-18A17 17 0 0 0 59 20L47 32 33 18Z"/></g><text x="112" y="1080" fill="#854F0B" font-size="22" text-anchor="start" font-weight="600">Programación con agentes</text><text x="112" y="1110" fill="#854F0B" font-size="15" text-anchor="start" font-weight="400">Bloque independiente · mejorar el trabajo en el código</text><text x="44" y="1155" fill="#854F0B" font-size="17" text-anchor="start" font-weight="400">AGENTS.md / CLAUDE.md</text><text x="44" y="1195" fill="#854F0B" font-size="17" text-anchor="start" font-weight="400">Skills compartidas</text><text x="44" y="1235" fill="#854F0B" font-size="17" text-anchor="start" font-weight="400">Hooks de desarrollo</text><text x="474" y="1155" fill="#854F0B" font-size="17" text-anchor="start" font-weight="400">Flujo de trabajo y validación</text><text x="474" y="1195" fill="#854F0B" font-size="17" text-anchor="start" font-weight="400">Worktrees y trabajo paralelo</text><text x="474" y="1235" fill="#854F0B" font-size="17" text-anchor="start" font-weight="400">Revisión de PR con agentes</text><g><rect x="20" y="1300" width="860" height="210" rx="12" fill="#FBEAF0" stroke="#A83C60"/>
<text x="44" y="1338" fill="#A83C60" font-size="22" font-weight="600">Runtime de agentes</text>
<text x="44" y="1374" fill="#A83C60" font-size="16">Ejecución y recuperación</text>
<text x="44" y="1408" fill="#A83C60" font-size="16">Streaming y cancelación</text>
<text x="44" y="1442" fill="#A83C60" font-size="16">Resiliencia entre proveedores</text>
<text x="474" y="1374" fill="#A83C60" font-size="16">Presupuesto de contexto</text>
<text x="474" y="1408" fill="#A83C60" font-size="16">Trazas y debugging</text>
<text x="474" y="1442" fill="#A83C60" font-size="14">Caché: prompts, respuestas e invalidación</text>
<text x="44" y="1484" fill="#A83C60" font-size="14">Conecta Fundamentos, Multiagentes, Seguridad y Evals.</text></g>
<g><rect x="20" y="1530" width="860" height="340" rx="12" fill="#F1EFE8" stroke="#5F5E5A"/>
<text x="44" y="1568" fill="#444441" font-size="22" font-weight="600">Evals y seguridad en producción</text>
<text x="44" y="1604" fill="#444441" font-size="16">Graders</text>
<text x="44" y="1638" fill="#444441" font-size="16">Regresiones y CI</text>
<text x="44" y="1672" fill="#444441" font-size="16">Evals por cliente y producción</text>
<text x="474" y="1604" fill="#0F6E56" font-size="16">Seguridad y evidencia documental</text>
<text x="474" y="1638" fill="#5F5E5A" font-size="14">Fuentes, aislamiento y auditoría</text></g><g><rect x="40" y="854" width="180" height="56" rx="8" fill="#FAECE7" stroke="#993C1D"/>
<text x="130" y="877" fill="#712B13" font-size="14" text-anchor="middle" font-weight="600">Subagents</text>
<text x="130" y="897" fill="#993C1D" font-size="11" text-anchor="middle">delegación y contexto</text>
<rect x="240" y="854" width="180" height="56" rx="8" fill="#FAECE7" stroke="#993C1D"/>
<text x="330" y="877" fill="#712B13" font-size="14" text-anchor="middle" font-weight="600">Deep Agents</text>
<text x="330" y="897" fill="#993C1D" font-size="11" text-anchor="middle">SDK y capacidades</text>
</g><g><text x="44" y="1708" fill="#444441" font-size="16">Evaluación de subagentes</text>
<text x="474" y="1708" fill="#444441" font-size="16">Evals de Deep Agents</text>
<text x="44" y="1742" fill="#5F5E5A" font-size="14">Decisión de delegar · casos de prueba</text></g><g><text x="44" y="1776" fill="#444441" font-size="16">Golden cases agénticos</text>
<text x="474" y="1776" fill="#444441" font-size="16">Evals de trayectoria</text>
<text x="44" y="1810" fill="#444441" font-size="16">Cobertura y uso de información</text>
<text x="474" y="1810" fill="#444441" font-size="16">Lost in the middle</text>
<text x="44" y="1844" fill="#444441" font-size="16">Métricas de subagentes</text>
<text x="474" y="1844" fill="#444441" font-size="16">Evals de caché</text></g><g><rect x="20" y="1900" width="860" height="240" rx="12" fill="#E0F4F3" stroke="#087F7C"/>
<text x="44" y="1938" fill="#087F7C" font-size="22" font-weight="600">MCP · conectar capacidades</text>
<text x="44" y="1978" fill="#087F7C" font-size="16">Host · cliente · servidor</text>
<text x="44" y="2014" fill="#087F7C" font-size="16">Tools · resources · prompts</text>
<text x="44" y="2050" fill="#087F7C" font-size="16">stdio · Streamable HTTP</text>
<text x="474" y="1978" fill="#087F7C" font-size="16">Stateless y estado de aplicación</text>
<text x="474" y="2014" fill="#087F7C" font-size="16">RAG como herramienta</text>
<text x="474" y="2050" fill="#087F7C" font-size="16">Autenticación · scopes · ACLs</text>
<text x="44" y="2104" fill="#087F7C" font-size="14">Componentes → conexión y estado → implementación</text></g></svg>
