<svg xmlns="http://www.w3.org/2000/svg" width="900" height="224" viewBox="0 0 900 224" role="img"><title>Tools · una propuesta se convierte en una acción controlada</title><g font-family="system-ui, Segoe UI, sans-serif"><rect x="0" y="0" width="900" height="224" rx="12" fill="#FBFAF7" stroke="none"/><text x="28" y="33" fill="#5F5E5A" font-size="17" text-anchor="start" font-weight="600">Tools · una propuesta se convierte en una acción controlada</text><rect x="28.0" y="55" width="187.0" height="149" rx="12" fill="#E6F1FB" stroke="none"/><g transform="translate(97.5,69) scale(0.75)" stroke="#185FA5" stroke-width="3" stroke-linecap="round" stroke-linejoin="round" fill="none"><path d="M21 5H15V24L7 32L15 40V59H21M43 5H49V24L57 32L49 40V59H43"/></g><text x="121.5" y="148" fill="#185FA5" font-size="19" text-anchor="middle" font-weight="600">Solicitar</text><text x="121.5" y="179" fill="#185FA5" font-size="16" text-anchor="middle" font-weight="400">modelo</text><path d="M222.0 124H240.0m-6-5 6 5-6 5" fill="none" stroke="#888780" stroke-width="2"/><rect x="247.0" y="55" width="187.0" height="149" rx="12" fill="#E6F1FB" stroke="none"/><g transform="translate(316.5,69) scale(0.75)" stroke="#185FA5" stroke-width="3" stroke-linecap="round" stroke-linejoin="round" fill="none"><path d="M32 3L56 13V32Q55 48 32 61Q9 48 8 32V13ZM21 31L29 39L44 22"/></g><text x="340.5" y="148" fill="#185FA5" font-size="19" text-anchor="middle" font-weight="600">Validar</text><text x="340.5" y="179" fill="#185FA5" font-size="16" text-anchor="middle" font-weight="400">aplicación</text><path d="M441.0 124H459.0m-6-5 6 5-6 5" fill="none" stroke="#888780" stroke-width="2"/><rect x="466.0" y="55" width="187.0" height="149" rx="12" fill="#E6F1FB" stroke="none"/><g transform="translate(535.5,69) scale(0.75)" stroke="#185FA5" stroke-width="3" stroke-linecap="round" stroke-linejoin="round" fill="none"><path d="M42 5a17 17 0 0 0-18 24L6 47a8 8 0 0 0 11 11l18-18A17 17 0 0 0 59 20L47 32 33 18Z"/></g><text x="559.5" y="148" fill="#185FA5" font-size="19" text-anchor="middle" font-weight="600">Ejecutar</text><text x="559.5" y="179" fill="#185FA5" font-size="16" text-anchor="middle" font-weight="400">herramienta</text><path d="M660.0 124H678.0m-6-5 6 5-6 5" fill="none" stroke="#888780" stroke-width="2"/><rect x="685.0" y="55" width="187.0" height="149" rx="12" fill="#E6F1FB" stroke="none"/><g transform="translate(754.5,69) scale(0.75)" stroke="#185FA5" stroke-width="3" stroke-linecap="round" stroke-linejoin="round" fill="none"><path d="M14 3H39L52 16V61H14ZM39 3V17H52M24 29H42M24 40H42M24 51H36"/></g><text x="778.5" y="148" fill="#185FA5" font-size="19" text-anchor="middle" font-weight="600">Resultado</text><text x="778.5" y="179" fill="#185FA5" font-size="16" text-anchor="middle" font-weight="400">continuar</text></g></svg>